<?xml version="1.0" encoding="UTF-8" standalone="no"?>
<!-- Created with Inkscape (http://www.inkscape.org/) -->

<svg
   version="1.1"
   id="svg2"
   width="1600"
   height="1066.6667"
   viewBox="0 0 1600 1066.6667"
   sodipodi:docname="lkcamp_certificate_bg.svg"
   inkscape:version="1.2.2 (b0a8486541, 2022-12-01)"
   xmlns:inkscape="http://www.inkscape.org/namespaces/inkscape"
   xmlns:sodipodi="http://sodipodi.sourceforge.net/DTD/sodipodi-0.dtd"
   xmlns:xlink="http://www.w3.org/1999/xlink"
   xmlns="http://www.w3.org/2000/svg"
   xmlns:svg="http://www.w3.org/2000/svg">
  <defs
     id="defs6">
    <linearGradient
       inkscape:collect="always"
       id="linearGradient1865">
      <stop
         style="stop-color:#6565e5;stop-opacity:1;"
         offset="0"
         id="stop1861" />
      <stop
         style="stop-color:#66b1b1;stop-opacity:0.49818841;"
         offset="1"
         id="stop1863" />
    </linearGradient>
    <linearGradient
       inkscape:collect="always"
       id="linearGradient1857">
      <stop
         style="stop-color:#6565e5;stop-opacity:1;"
         offset="0"
         id="stop1853" />
      <stop
         style="stop-color:#66b1b1;stop-opacity:0.49617866;"
         offset="1"
         id="stop1855" />
    </linearGradient>
    <inkscape:path-effect
       effect="interpolate"
       id="path-effect1739"
       is_visible="true"
       lpeversion="1"
       trajectory="m 599.43798,150.57588 2.15444,236.66953"
       equidistant_spacing="true"
       steps="30" />
    <inkscape:path-effect
       effect="spiro"
       id="path-effect1079"
       is_visible="true"
       lpeversion="1" />
    <inkscape:path-effect
       effect="spiro"
       id="path-effect1075"
       is_visible="true"
       lpeversion="1" />
    <clipPath
       clipPathUnits="userSpaceOnUse"
       id="clipPath20">
      <path
         d="M 0,0 V 0 8000 H 12000 6409.44 3500 0 V 4716.71 h 3500 v -1080 h 8500 V 2210 H 9220 v 460 H 0 V 2194.45 1770 0"
         id="path18" />
    </clipPath>
    <linearGradient
       x1="0"
       y1="0"
       x2="1"
       y2="0"
       gradientUnits="userSpaceOnUse"
       gradientTransform="matrix(10000,10000,10000,-10000,1000,-1000)"
       spreadMethod="pad"
       id="linearGradient28">
      <stop
         style="stop-opacity:1;stop-color:#dddddd"
         offset="0"
         id="stop22" />
      <stop
         style="stop-opacity:1;stop-color:#ffffff"
         offset="0.5"
         id="stop24" />
      <stop
         style="stop-opacity:1;stop-color:#dddddd"
         offset="1"
         id="stop26" />
    </linearGradient>
    <clipPath
       clipPathUnits="userSpaceOnUse"
       id="clipPath38">
      <path
         d="M 4300,1770 H 305.887 C 177.852,1928.31 75.6758,2075.96 0,2194.45 V 2670 H 9220 V 2210 H 4300 v -440"
         id="path36" />
    </clipPath>
    <clipPath
       clipPathUnits="userSpaceOnUse"
       id="clipPath50">
      <path
         d="M 305.887,1770 H 0 v 424.45 C 75.6758,2075.96 177.852,1928.31 305.887,1770"
         id="path48" />
    </clipPath>
    <linearGradient
       x1="0"
       y1="0"
       x2="1"
       y2="0"
       gradientUnits="userSpaceOnUse"
       gradientTransform="matrix(9220.89,0,0,-9220.89,-160.446,1109.4)"
       spreadMethod="pad"
       id="linearGradient58">
      <stop
         style="stop-opacity:1;stop-color:#1143b5"
         offset="0"
         id="stop52" />
      <stop
         style="stop-opacity:1;stop-color:#1143b5"
         offset="0.00036143"
         id="stop54" />
      <stop
         style="stop-opacity:1;stop-color:#7dd5f9"
         offset="1"
         id="stop56" />
    </linearGradient>
    <clipPath
       clipPathUnits="userSpaceOnUse"
       id="clipPath68">
      <path
         d="M 12000,3636.71 H 3500 v 1080 h 8074.4 c 194.6,-247.7 334.8,-456.48 425.6,-601.94 v -478.06"
         id="path66" />
    </clipPath>
    <clipPath
       clipPathUnits="userSpaceOnUse"
       id="clipPath80">
      <path
         d="m 12000,4114.77 v 0 c -90.8,145.46 -231,354.24 -425.6,601.94 h 425.6 v -601.94"
         id="path78" />
    </clipPath>
    <linearGradient
       x1="0"
       y1="0"
       x2="1"
       y2="0"
       gradientUnits="userSpaceOnUse"
       gradientTransform="matrix(-8471.39,0,0,-8471.39,12130,6135.71)"
       spreadMethod="pad"
       id="linearGradient88">
      <stop
         style="stop-opacity:1;stop-color:#1143b5"
         offset="0"
         id="stop82" />
      <stop
         style="stop-opacity:1;stop-color:#1143b5"
         offset="0.00036143"
         id="stop84" />
      <stop
         style="stop-opacity:1;stop-color:#7dd5f9"
         offset="1"
         id="stop86" />
    </linearGradient>
    <clipPath
       clipPathUnits="userSpaceOnUse"
       id="clipPath98">
      <path
         d="M 0,4716.71 H 3500 V 8000 H 0 Z"
         id="path96" />
    </clipPath>
    <clipPath
       clipPathUnits="userSpaceOnUse"
       id="clipPath110">
      <path
         d="M 11574.4,4716.71 H 3500 V 8000 H 6409.44 C 9195.04,7274.59 10807.8,5692.26 11574.4,4716.71"
         id="path108" />
    </clipPath>
    <clipPath
       clipPathUnits="userSpaceOnUse"
       id="clipPath116">
      <path
         d="m 3495.2,6027.11 h 2112.19 v 1977.6 H 3495.2 Z"
         id="path114" />
    </clipPath>
    <clipPath
       clipPathUnits="userSpaceOnUse"
       id="clipPath128">
      <path
         d="M 11574.4,4716.71 H 3500 V 8000 H 6409.44 C 9195.04,7274.59 10807.8,5692.26 11574.4,4716.71"
         id="path126" />
    </clipPath>
    <clipPath
       clipPathUnits="userSpaceOnUse"
       id="clipPath134">
      <path
         d="m 5602.59,6027.11 h 2112.19 v 1977.6 H 5602.59 Z"
         id="path132" />
    </clipPath>
    <clipPath
       clipPathUnits="userSpaceOnUse"
       id="clipPath146">
      <path
         d="M 11574.4,4716.71 H 3500 V 8000 H 6409.44 C 9195.04,7274.59 10807.8,5692.26 11574.4,4716.71"
         id="path144" />
    </clipPath>
    <clipPath
       clipPathUnits="userSpaceOnUse"
       id="clipPath152">
      <path
         d="m 7709.98,4711.91 h 708.07 v 2964 h -708.07 z"
         id="path150" />
    </clipPath>
    <clipPath
       clipPathUnits="userSpaceOnUse"
       id="clipPath164">
      <path
         d="M 11574.4,4716.71 H 3500 V 8000 H 6409.44 C 9195.04,7274.59 10807.8,5692.26 11574.4,4716.71"
         id="path162" />
    </clipPath>
    <clipPath
       clipPathUnits="userSpaceOnUse"
       id="clipPath170">
      <path
         d="m 8413.25,4711.91 h 708.059 v 2635.2 H 8413.25 Z"
         id="path168" />
    </clipPath>
    <clipPath
       clipPathUnits="userSpaceOnUse"
       id="clipPath182">
      <path
         d="M 11574.4,4716.71 H 3500 V 8000 H 6409.44 C 9195.04,7274.59 10807.8,5692.26 11574.4,4716.71"
         id="path180" />
    </clipPath>
    <clipPath
       clipPathUnits="userSpaceOnUse"
       id="clipPath188">
      <path
         d="m 9116.51,4711.91 h 355.23 v 2306.4 h -355.23 z"
         id="path186" />
    </clipPath>
    <clipPath
       clipPathUnits="userSpaceOnUse"
       id="clipPath200">
      <path
         d="M 11574.4,4716.71 H 3500 V 8000 H 6409.44 C 9195.04,7274.59 10807.8,5692.26 11574.4,4716.71"
         id="path198" />
    </clipPath>
    <clipPath
       clipPathUnits="userSpaceOnUse"
       id="clipPath206">
      <path
         d="m 9466.94,4711.91 h 708.059 v 1977.6 H 9466.94 Z"
         id="path204" />
    </clipPath>
    <clipPath
       clipPathUnits="userSpaceOnUse"
       id="clipPath218">
      <path
         d="M 11574.4,4716.71 H 3500 V 8000 H 6409.44 C 9195.04,7274.59 10807.8,5692.26 11574.4,4716.71"
         id="path216" />
    </clipPath>
    <clipPath
       clipPathUnits="userSpaceOnUse"
       id="clipPath224">
      <path
         d="m 10170.2,4711.91 h 355.203 v 1648.8 H 10170.2 Z"
         id="path222" />
    </clipPath>
    <clipPath
       clipPathUnits="userSpaceOnUse"
       id="clipPath236">
      <path
         d="M 11574.4,4716.71 H 3500 V 8000 H 6409.44 C 9195.04,7274.59 10807.8,5692.26 11574.4,4716.71"
         id="path234" />
    </clipPath>
    <clipPath
       clipPathUnits="userSpaceOnUse"
       id="clipPath242">
      <path
         d="m 3495.2,4711.91 h 3516.32 v 1320 H 3495.2 Z"
         id="path240" />
    </clipPath>
    <clipPath
       clipPathUnits="userSpaceOnUse"
       id="clipPath254">
      <path
         d="M 11574.4,4716.71 H 3500 V 8000 H 6409.44 C 9195.04,7274.59 10807.8,5692.26 11574.4,4716.71"
         id="path252" />
    </clipPath>
    <clipPath
       clipPathUnits="userSpaceOnUse"
       id="clipPath260">
      <path
         d="m 7006.72,4711.91 h 708.063 v 1320 H 7006.72 Z"
         id="path258" />
    </clipPath>
    <clipPath
       clipPathUnits="userSpaceOnUse"
       id="clipPath272">
      <path
         d="M 11574.4,4716.71 H 3500 V 8000 H 6409.44 C 9195.04,7274.59 10807.8,5692.26 11574.4,4716.71"
         id="path270" />
    </clipPath>
    <clipPath
       clipPathUnits="userSpaceOnUse"
       id="clipPath278">
      <path
         d="m 10520.6,4711.91 h 355.297 v 1320 H 10520.6 Z"
         id="path276" />
    </clipPath>
    <clipPath
       clipPathUnits="userSpaceOnUse"
       id="clipPath290">
      <path
         d="M 11574.4,4716.71 H 3500 V 8000 H 6409.44 C 9195.04,7274.59 10807.8,5692.26 11574.4,4716.71"
         id="path288" />
    </clipPath>
    <clipPath
       clipPathUnits="userSpaceOnUse"
       id="clipPath296">
      <path
         d="m 10871.1,4711.91 h 357.598 v 991.199 H 10871.1 Z"
         id="path294" />
    </clipPath>
    <clipPath
       clipPathUnits="userSpaceOnUse"
       id="clipPath308">
      <path
         d="M 11574.4,4716.71 H 3500 V 8000 H 6409.44 C 9195.04,7274.59 10807.8,5692.26 11574.4,4716.71"
         id="path306" />
    </clipPath>
    <clipPath
       clipPathUnits="userSpaceOnUse"
       id="clipPath314">
      <path
         d="m 11223.9,4711.91 h 355.199 v 662.398 H 11223.9 Z"
         id="path312" />
    </clipPath>
    <clipPath
       clipPathUnits="userSpaceOnUse"
       id="clipPath326">
      <path
         d="m 12000,4716.71 h -425.6 C 10807.8,5692.26 9195.04,7274.59 6409.44,8000 H 12000 V 4716.71"
         id="path324" />
    </clipPath>
    <clipPath
       clipPathUnits="userSpaceOnUse"
       id="clipPath338">
      <path
         d="M 0,0 H 12000 V 8000 H 0 Z"
         id="path336" />
    </clipPath>
    <clipPath
       clipPathUnits="userSpaceOnUse"
       id="clipPath344">
      <path
         d="M -211.875,8479.55 H 12110.2 V 4975.7 c 0,0 -1924.5,4225.77 -12328.212,2380.72 z"
         id="path342" />
    </clipPath>
    <linearGradient
       x1="0"
       y1="0"
       x2="1"
       y2="0"
       gradientUnits="userSpaceOnUse"
       gradientTransform="matrix(12328.2,0,0,-12328.2,-218.012,6727.62)"
       spreadMethod="pad"
       id="linearGradient352">
      <stop
         style="stop-opacity:1;stop-color:#1141b0"
         offset="0"
         id="stop346" />
      <stop
         style="stop-opacity:1;stop-color:#1141b0"
         offset="0.434122"
         id="stop348" />
      <stop
         style="stop-opacity:1;stop-color:#2db4f9"
         offset="1"
         id="stop350" />
    </linearGradient>
    <clipPath
       clipPathUnits="userSpaceOnUse"
       id="clipPath362">
      <path
         d="M 2631.7,506.719 C 1546.4,506.719 761.949,1206.11 305.887,1770 H 4300 V 1001.06 C 4214,962.879 4127.6,921.641 4040.45,877 3525.96,613.52 3055.88,506.719 2631.7,506.719"
         id="path360" />
    </clipPath>
    <clipPath
       clipPathUnits="userSpaceOnUse"
       id="clipPath368">
      <path
         d="m 301.602,1135.79 h 4003.2 v 638.66 h -4003.2 z"
         id="path366" />
    </clipPath>
    <clipPath
       clipPathUnits="userSpaceOnUse"
       id="clipPath380">
      <path
         d="M 2631.7,506.719 C 1546.4,506.719 761.949,1206.11 305.887,1770 H 4300 V 1001.06 C 4214,962.879 4127.6,921.641 4040.45,877 3525.96,613.52 3055.88,506.719 2631.7,506.719"
         id="path378" />
    </clipPath>
    <clipPath
       clipPathUnits="userSpaceOnUse"
       id="clipPath386">
      <path
         d="m 635.199,818.871 h 3669.6 v 321.719 h -3669.6 z"
         id="path384" />
    </clipPath>
    <clipPath
       clipPathUnits="userSpaceOnUse"
       id="clipPath398">
      <path
         d="M 2631.7,506.719 C 1546.4,506.719 761.949,1206.11 305.887,1770 H 4300 V 1001.06 C 4214,962.879 4127.6,921.641 4040.45,877 3525.96,613.52 3055.88,506.719 2631.7,506.719"
         id="path396" />
    </clipPath>
    <clipPath
       clipPathUnits="userSpaceOnUse"
       id="clipPath404">
      <path
         d="m 1300,501.941 h 2671.2 v 321.73 H 1300 Z"
         id="path402" />
    </clipPath>
    <clipPath
       clipPathUnits="userSpaceOnUse"
       id="clipPath416">
      <path
         d="M 4300,0 H 0 V 1770 H 305.887 C 761.949,1206.11 1546.4,506.719 2631.7,506.719 c 424.18,0 894.26,106.801 1408.75,370.281 87.15,44.641 173.55,85.879 259.55,124.06 V 0"
         id="path414" />
    </clipPath>
    <clipPath
       clipPathUnits="userSpaceOnUse"
       id="clipPath428">
      <path
         d="M 0,0 H 12000 V 8000 H 0 Z"
         id="path426" />
    </clipPath>
    <clipPath
       clipPathUnits="userSpaceOnUse"
       id="clipPath434">
      <path
         d="m -218.012,-250.32 5.016,1819.54 c 0,0 940.723,-1866.349 6001.466,-1819.54 z"
         id="path432" />
    </clipPath>
    <linearGradient
       x1="0"
       y1="0"
       x2="1"
       y2="0"
       gradientUnits="userSpaceOnUse"
       gradientTransform="matrix(6006.48,0,0,-6006.48,-218.012,659.01)"
       spreadMethod="pad"
       id="linearGradient444">
      <stop
         style="stop-opacity:1;stop-color:#1141b0"
         offset="0"
         id="stop436" />
      <stop
         style="stop-opacity:1;stop-color:#1141b0"
         offset="0.434122"
         id="stop438" />
      <stop
         style="stop-opacity:1;stop-color:#2dd5f9"
         offset="0.999986"
         id="stop440" />
      <stop
         style="stop-opacity:1;stop-color:#2dd5f9"
         offset="1"
         id="stop442" />
    </linearGradient>
    <clipPath
       clipPathUnits="userSpaceOnUse"
       id="clipPath454">
      <path
         d="m 9220,0 h 2780 V 2210 H 9220 Z"
         id="path452" />
    </clipPath>
    <clipPath
       clipPathUnits="userSpaceOnUse"
       id="clipPath466">
      <path
         d="m 9220,0 h -263.07 c -337.71,560.172 -1434.55,1387.8 -2907.02,1387.8 -36.41,0 -73.05,-0.51 -109.91,-1.54 V 1770 H 4300 v 440 H 9220 V 0"
         id="path464" />
    </clipPath>
    <clipPath
       clipPathUnits="userSpaceOnUse"
       id="clipPath472">
      <path
         d="m 4295.2,1577.57 h 4929.6 v 636.25 H 4295.2 Z"
         id="path470" />
    </clipPath>
    <clipPath
       clipPathUnits="userSpaceOnUse"
       id="clipPath484">
      <path
         d="m 9220,0 h -263.07 c -337.71,560.172 -1434.55,1387.8 -2907.02,1387.8 -36.41,0 -73.05,-0.51 -109.91,-1.54 V 1770 H 4300 v 440 H 9220 V 0"
         id="path482" />
    </clipPath>
    <clipPath
       clipPathUnits="userSpaceOnUse"
       id="clipPath490">
      <path
         d="m 5701.6,1260.64 h 3523.2 v 321.73 H 5701.6 Z"
         id="path488" />
    </clipPath>
    <clipPath
       clipPathUnits="userSpaceOnUse"
       id="clipPath502">
      <path
         d="m 9220,0 h -263.07 c -337.71,560.172 -1434.55,1387.8 -2907.02,1387.8 -36.41,0 -73.05,-0.51 -109.91,-1.54 V 1770 H 4300 v 440 H 9220 V 0"
         id="path500" />
    </clipPath>
    <clipPath
       clipPathUnits="userSpaceOnUse"
       id="clipPath508">
      <path
         d="m 6757.6,943.719 h 2467.2 v 321.723 H 6757.6 Z"
         id="path506" />
    </clipPath>
    <clipPath
       clipPathUnits="userSpaceOnUse"
       id="clipPath520">
      <path
         d="m 9220,0 h -263.07 c -337.71,560.172 -1434.55,1387.8 -2907.02,1387.8 -36.41,0 -73.05,-0.51 -109.91,-1.54 V 1770 H 4300 v 440 H 9220 V 0"
         id="path518" />
    </clipPath>
    <clipPath
       clipPathUnits="userSpaceOnUse"
       id="clipPath526">
      <path
         d="m 7813.6,626.789 h 1411.2 v 321.73 H 7813.6 Z"
         id="path524" />
    </clipPath>
    <clipPath
       clipPathUnits="userSpaceOnUse"
       id="clipPath538">
      <path
         d="m 9220,0 h -263.07 c -337.71,560.172 -1434.55,1387.8 -2907.02,1387.8 -36.41,0 -73.05,-0.51 -109.91,-1.54 V 1770 H 4300 v 440 H 9220 V 0"
         id="path536" />
    </clipPath>
    <clipPath
       clipPathUnits="userSpaceOnUse"
       id="clipPath544">
      <path
         d="M 8164,312.27 H 9224.8 V 631.59 H 8164 Z"
         id="path542" />
    </clipPath>
    <clipPath
       clipPathUnits="userSpaceOnUse"
       id="clipPath556">
      <path
         d="m 9220,0 h -263.07 c -337.71,560.172 -1434.55,1387.8 -2907.02,1387.8 -36.41,0 -73.05,-0.51 -109.91,-1.54 V 1770 H 4300 v 440 H 9220 V 0"
         id="path554" />
    </clipPath>
    <clipPath
       clipPathUnits="userSpaceOnUse"
       id="clipPath562">
      <path
         d="m 8516.8,-4.66016 h 708 v 321.73 h -708 z"
         id="path560" />
    </clipPath>
    <clipPath
       clipPathUnits="userSpaceOnUse"
       id="clipPath574">
      <path
         d="M 8956.93,0 H 5940 v 1386.26 c 36.86,1.03 73.5,1.54 109.91,1.54 1472.47,0 2569.31,-827.628 2907.02,-1387.8 v 0"
         id="path572" />
    </clipPath>
    <clipPath
       clipPathUnits="userSpaceOnUse"
       id="clipPath586">
      <path
         d="M 4300,1001.06 V 1770 h 1640 v -383.74 c -508.98,-14.21 -1060.94,-128.15 -1640,-385.2"
         id="path584" />
    </clipPath>
    <clipPath
       clipPathUnits="userSpaceOnUse"
       id="clipPath598">
      <path
         d="M 5940,0 H 4300 v 1001.06 c 579.06,257.05 1131.02,370.99 1640,385.2 V 0"
         id="path596" />
    </clipPath>
    <clipPath
       clipPathUnits="userSpaceOnUse"
       id="clipPath610">
      <path
         d="M 0,0 H 12000 V 8000 H 0 Z"
         id="path608" />
    </clipPath>
    <clipPath
       clipPathUnits="userSpaceOnUse"
       id="clipPath616">
      <path
         d="m 12210,2005.2 c 0,0 -630.9,-1372.2 -3138.7,-1293.329 C 6563.5,790.719 4450,-251.191 4450,-251.191 h 7760 z"
         id="path614" />
    </clipPath>
    <linearGradient
       x1="0"
       y1="0"
       x2="1"
       y2="0"
       gradientUnits="userSpaceOnUse"
       gradientTransform="matrix(7760,0,0,-7760,4450,877)"
       spreadMethod="pad"
       id="linearGradient626">
      <stop
         style="stop-opacity:1;stop-color:#1141b0"
         offset="0"
         id="stop618" />
      <stop
         style="stop-opacity:1;stop-color:#1141b0"
         offset="0.434122"
         id="stop620" />
      <stop
         style="stop-opacity:1;stop-color:#2dd5f9"
         offset="0.999986"
         id="stop622" />
      <stop
         style="stop-opacity:1;stop-color:#2dd5f9"
         offset="1"
         id="stop624" />
    </linearGradient>
    <inkscape:path-effect
       effect="spiro"
       id="path-effect1075-3"
       is_visible="true"
       lpeversion="1" />
    <inkscape:path-effect
       effect="spiro"
       id="path-effect1075-3-7"
       is_visible="true"
       lpeversion="1" />
    <inkscape:path-effect
       effect="interpolate"
       id="path-effect1739-5"
       is_visible="true"
       lpeversion="1"
       trajectory="m 599.43798,150.57588 2.15444,236.66953"
       equidistant_spacing="true"
       steps="35" />
    <linearGradient
       inkscape:collect="always"
       xlink:href="#linearGradient1857"
       id="linearGradient1859"
       x1="0.11856124"
       y1="292.5508"
       x2="1200.7854"
       y2="292.5508"
       gradientUnits="userSpaceOnUse" />
    <linearGradient
       inkscape:collect="always"
       xlink:href="#linearGradient1865"
       id="linearGradient1867"
       x1="-0.27762417"
       y1="260.44812"
       x2="1212.6745"
       y2="260.44812"
       gradientUnits="userSpaceOnUse" />
  </defs>
  <sodipodi:namedview
     id="namedview4"
     pagecolor="#ffffff"
     bordercolor="#666666"
     borderopacity="1.0"
     inkscape:showpageshadow="2"
     inkscape:pageopacity="0.0"
     inkscape:pagecheckerboard="0"
     inkscape:deskcolor="#d1d1d1"
     showgrid="false"
     showguides="false"
     inkscape:zoom="0.22124997"
     inkscape:cx="454.23734"
     inkscape:cy="246.32771"
     inkscape:window-width="1128"
     inkscape:window-height="752"
     inkscape:window-x="0"
     inkscape:window-y="0"
     inkscape:window-maximized="1"
     inkscape:current-layer="g10">
    <inkscape:page
       x="0"
       y="0"
       id="page8"
       width="1600"
       height="1066.6667"
       inkscape:export-filename="../../lkcamp_certificate_bg_png.png"
       inkscape:export-xdpi="96"
       inkscape:export-ydpi="96" />
  </sodipodi:namedview>
  <g
     id="g10"
     inkscape:groupmode="layer"
     inkscape:label="Page 1"
     transform="matrix(1.3333333,0,0,-1.3333333,0,1066.6667)">
    <path
       id="path1073-6"
       style="fill:none;stroke:url(#linearGradient1867);stroke-width:3.01758;stroke-linecap:butt;stroke-linejoin:miter;stroke-dasharray:none;stroke-opacity:1"
       inkscape:path-effect="#path-effect1075-3;#path-effect1739"
       inkscape:original-d="M -7.3776701,163.98655 C 56.336805,142.87694 134.96771,134.42976 199.22439,113.31945 263.48107,92.209141 363.56623,62.860324 531.18085,144.24015 706.02579,229.1304 937.99048,155.36913 1091.5807,96.394246 M -5.172026,176.86773 c 63.705745,45.29433 201.343266,37.36159 268.154236,76.74188 71.83855,42.3437 425.45663,28.89046 322.22478,-55.33891 -148.38063,-121.067395 351.72432,42.53504 505.29341,39.66664"
       d="M -7.3776701,163.98655 C 57.648524,134.73659 128.04353,117.47292 199.22439,113.31945 c 111.12381,-6.48417 221.32433,18.62933 331.95646,30.9207 187.52924,20.83474 379.11668,4.47735 560.39985,-47.845904 M -7.3016134,164.43073 C 58.231638,137.92113 129.44734,122.18232 201.42294,118.15704 c 111.05678,-6.278 221.09468,16.72503 331.62088,27.94623 186.86271,19.10559 377.89637,3.7874 558.49958,-44.82823 M -7.2255567,164.87491 C 58.814752,141.10568 130.85116,126.89173 203.62148,122.99463 c 110.98976,-6.07183 220.86504,14.82074 331.28531,24.97176 186.19618,17.37643 376.67606,3.09744 556.59941,-41.81055 M -7.1495,165.31909 c 66.547365,-21.02887 139.40447,-33.71795 212.96953,-37.48686 110.92273,-5.86567 220.63538,12.91643 330.94973,21.99729 185.52965,15.64727 375.45575,2.40748 554.69914,-38.79289 M -7.0734433,165.76326 C 59.980979,147.47477 133.65879,136.31054 208.01857,132.66982 c 110.85571,-5.6595 220.40574,11.01214 330.61416,19.02282 184.86312,13.91812 374.23544,1.71753 552.79897,-35.77521 M -6.9973866,166.20744 C 60.564093,150.65931 135.0626,141.01995 210.21712,137.50741 c 110.78868,-5.45333 220.17608,9.10784 330.27858,16.04835 184.19658,12.18897 373.01513,1.02757 550.8987,-32.75753 M -6.9213299,166.65162 C 61.147206,153.84386 136.46641,145.72936 212.41566,142.345 c 110.72166,-5.24716 219.94644,7.20354 329.94301,13.07388 183.53005,10.45982 371.79482,0.33762 548.99853,-29.73986 M -6.8452732,167.0958 C 61.73032,157.0284 137.87023,150.43876 214.61421,147.18259 c 110.65463,-5.04099 219.71678,5.29925 329.60743,10.09942 182.86352,8.73066 370.57451,-0.35235 547.09826,-26.72219 M -6.7692166,167.53998 C 62.313434,160.21294 139.27404,155.14817 216.81275,152.02018 c 110.58761,-4.83482 219.48714,3.39495 329.27186,7.12495 182.19699,7.00151 369.3542,-1.0423 545.19809,-23.70451 M -6.6931599,167.98416 C 62.896547,163.39749 140.67786,159.85758 219.0113,156.85778 c 110.52058,-4.62866 219.25748,1.49065 328.93628,4.15047 181.53046,5.27235 368.13389,-1.73226 543.29782,-20.68684 M -6.6171032,168.42834 c 70.0967642,-1.84631 148.6987732,-3.86136 227.8269532,-6.73297 110.45355,-4.42249 219.02783,-0.41365 328.6007,1.176 180.86393,3.5432 366.91358,-2.42221 541.39765,-17.66916 M -6.5410465,168.87251 c 70.6038215,0.89407 150.0265265,0.40388 229.9494365,-2.33955 110.38652,-4.21632 218.79818,-2.31795 328.26513,-1.79846 180.19739,1.81404 365.69327,-3.11218 539.49738,-14.6515 M -6.4649898,169.31669 c 71.1108788,3.63443 151.3542898,4.66911 232.0719298,2.05386 110.31949,-4.01016 218.56853,-4.22224 327.92955,-4.77293 179.53086,0.0849 364.47296,-3.80213 537.59721,-11.63382 M -6.3889331,169.76087 c 71.6179351,6.37479 152.6820431,8.93433 234.1944131,6.44727 110.25247,-3.80399 218.33888,-6.12654 327.59398,-7.7474 178.86433,-1.64426 363.25265,-4.49209 535.69694,-8.61614 M -6.3128764,170.20505 c 72.1249924,9.11516 154.0097964,13.19956 236.3169064,10.84068 110.18544,-3.59782 218.10923,-8.03084 327.2584,-10.72187 178.1978,-3.37341 362.03234,-5.18204 533.79667,-5.59847 M -6.2368197,170.64923 c 72.6320497,11.85552 155.3375597,17.46479 238.4393897,15.2341 110.11842,-3.39166 217.87958,-9.93514 326.92284,-13.69634 177.53126,-5.10257 360.81202,-5.87201 531.89649,-2.5808 M -6.160763,171.09341 c 73.139106,14.59589 156.665313,21.73001 240.561883,19.62751 110.05139,-3.18549 217.64993,-11.83944 326.58726,-16.67081 176.86473,-6.83173 359.59171,-6.56196 529.99622,0.43688 M -6.0847063,171.53759 c 73.6461633,17.33625 157.9930763,25.99524 242.6843663,24.02092 109.98437,-2.97932 217.42028,-13.74373 326.25169,-19.64528 176.19819,-8.56088 358.3714,-7.25192 528.09605,3.45455 M -6.0086496,171.98177 C 68.144571,192.05838 153.31218,202.24224 238.79821,200.3961 c 109.91734,-2.77315 217.19063,-15.64803 325.91611,-22.61975 175.53166,-10.29003 357.15109,-7.94187 526.19578,6.47223 M -5.9325929,172.42594 c 74.6602769,22.81699 160.6485829,34.5257 246.9293429,32.80775 109.85032,-2.56698 216.96098,-17.55233 325.58054,-25.59421 174.86513,-12.01919 355.93078,-8.63184 524.29561,9.4899 M -5.8565362,172.87012 C 69.310798,198.42747 156.11981,211.66105 243.1953,210.07128 c 109.78329,-2.36081 216.73133,-19.45662 325.24496,-28.56868 174.1986,-13.74834 354.71047,-9.32179 522.39534,12.50757 M -5.7804795,173.3143 C 69.893912,201.61202 157.52362,216.37046 245.39385,214.90888 355.11011,212.75423 461.89553,193.54795 570.30323,183.36572 743.8353,167.88823 923.79339,173.35398 1090.7984,198.89097 M -5.7044229,173.75848 C 70.477026,204.79656 158.92744,221.07986 247.59239,219.74647 357.24163,217.79799 463.86442,196.48125 572.1662,185.22884 745.03174,168.0222 924.43605,174.52714 1090.7611,203.77176 M -5.6283662,174.20266 c 76.6885052,33.77844 165.9596162,51.58661 255.4193062,50.3814 109.58221,-1.74231 216.04238,-25.16952 324.23823,-37.49209 172.199,-18.93581 351.04954,-11.39166 516.69473,21.56059 M -5.5523095,174.64684 C 71.643253,211.16565 161.73506,230.49868 251.98948,229.42165 361.50467,227.88551 467.80221,202.34783 575.89214,188.95509 747.42461,168.29013 925.72137,176.87347 1090.6866,213.53336 M -5.4762528,175.09102 C 72.226367,214.35019 163.13888,235.20808 254.18803,234.25924 363.63619,232.92927 469.77111,205.28113 577.75511,190.81821 748.62105,168.4241 926.36404,178.04664 1090.6494,218.41415 M -5.4001961,175.53519 C 72.80948,217.53474 164.54269,239.91749 256.38657,239.09683 365.76771,237.97303 471.74,208.21442 579.61808,192.68133 749.81749,168.55807 927.0067,179.2198 1090.6121,223.29495 M -5.3241394,175.97937 C 73.392594,220.71928 165.94651,244.6269 258.58512,243.93443 367.89923,243.01679 473.7089,211.14771 581.48105,194.54446 751.01393,168.69204 927.64936,180.39297 1090.5749,228.17575 M -5.2480827,176.42355 C 73.975708,223.90383 167.35032,249.3363 260.78366,248.77202 c 109.24709,-0.71147 214.89413,-34.69101 322.56036,-52.36444 168.86635,-27.58157 344.948,-14.84145 507.19358,36.64896 M -5.172026,176.86773 c 79.730848,50.22064 173.926156,77.17798 268.154236,76.74188 109.18006,-0.5053 214.66448,-36.59531 322.22478,-55.33891 168.19981,-29.31072 343.72769,-15.5314 505.29341,39.66664"
       class="UnoptimicedTransforms"
       transform="matrix(1.0986116,0,0,0.8996665,4.1256163,645.7436)"
       sodipodi:nodetypes="cssccssc" />
    <path
       id="path1073-6-3"
       style="fill:none;fill-opacity:1;stroke:url(#linearGradient1859);stroke-width:2.99584;stroke-linecap:butt;stroke-linejoin:miter;stroke-dasharray:none;stroke-opacity:1"
       inkscape:path-effect="#path-effect1075-3-7;#path-effect1739-5"
       inkscape:original-d="M -2.7881715,251.0436 C 60.926304,229.93399 221.46773,178.5959 285.72441,157.48559 c 64.25668,-21.11031 343.29977,90.79767 526.80681,95.17306 189.88788,4.52753 235.48898,-44.12906 389.07918,-42.79223 M -10.87253,295.69534 c 63.705745,45.29433 322.31893,13.48037 386.56681,58.77621 64.24788,45.29583 194.93027,6.73015 376.52982,-50.45791 181.59961,-57.18807 294.9273,15.29066 448.4964,12.42226"
       d="M -2.7881715,251.0436 C 82.287786,194.04942 183.39171,161.26374 285.72441,157.48559 c 178.84198,-6.60289 349.26682,72.64307 526.80681,95.17306 130.64406,16.57885 265.16118,1.78421 389.07918,-42.79223 M -3.0259467,252.35689 C 83.174528,198.35592 185.19341,167.12576 288.37058,163.27929 c 177.30411,-6.58198 346.36746,69.45347 522.3869,90.8898 131.18583,15.58069 266.20412,1.34465 390.82682,-41.16827 M -3.263722,253.67017 C 84.06127,202.66241 186.9951,172.98779 291.01676,169.073 c 175.76623,-6.56107 343.4681,66.26385 517.96698,86.60653 131.7276,14.58253 267.24716,0.90509 392.57436,-39.54432 M -3.5014972,254.98346 C 84.948011,206.9689 188.79679,178.84982 293.66293,174.8667 467.8913,168.32654 634.23167,237.94095 807.21,257.18997 c 132.26937,13.58437 268.2901,0.46552 394.3219,-37.92036 M -3.7392725,256.29675 C 85.834753,211.2754 190.59848,184.71184 296.3091,180.66041 c 172.6905,-6.51926 337.66939,59.88464 509.12716,78.04 132.81114,12.58621 269.33304,0.026 396.06944,-36.2964 M -3.9770477,257.61003 C 86.721495,215.58189 192.40017,190.57387 298.95527,186.45411 c 171.15264,-6.49835 334.77003,56.69503 504.70726,73.75674 133.3529,11.58805 270.37597,-0.4136 397.81707,-34.67245 M -4.214823,258.92332 c 91.823059,-39.03494 198.416683,-62.48742 305.816273,-66.6755 169.61476,-6.47744 331.87067,53.50542 500.28734,69.47348 133.89467,10.58987 271.41891,-0.85317 399.56461,-33.0485 M -4.4525982,260.23661 C 88.494978,224.19488 196.00355,202.29792 304.24762,198.04152 c 168.07689,-6.45653 328.97131,50.31582 495.86743,65.19022 134.43644,9.59171 272.46185,-1.29273 401.31215,-31.42454 M -4.6903735,261.54989 C 89.38172,228.50137 197.80525,208.15995 306.89379,203.83523 c 166.53903,-6.43563 326.07196,47.12621 491.44752,60.90695 134.97821,8.59355 273.50479,-1.73229 403.05969,-29.80059 M -4.9281487,262.86318 C 90.268461,232.80787 199.60694,214.02198 309.53996,209.62893 c 165.00116,-6.41472 323.1726,43.9366 487.02761,56.62369 135.51998,7.59539 274.54783,-2.17185 404.80733,-28.17663 M -5.165924,264.17646 C 91.155203,237.11436 201.40863,219.884 312.18614,215.42264 c 163.46329,-6.39381 320.27324,40.74699 482.60769,52.34042 136.06175,6.59723 275.59077,-2.61141 406.55487,-26.55267 M -5.4036992,265.48975 C 92.041945,241.42085 203.21032,225.74603 314.83231,221.21634 c 161.92542,-6.3729 317.37389,37.55739 478.18778,48.05716 136.60352,5.59907 276.63371,-3.05097 408.30241,-24.92872 M -5.6414745,266.80304 C 92.928686,245.72735 205.01201,231.60806 317.47848,227.01005 c 160.38756,-6.352 314.47453,34.36777 473.76787,43.77389 137.14529,4.60091 277.67665,-3.49053 410.04995,-23.30476 M -5.8792497,268.11632 C 93.815428,250.03384 206.8137,237.47008 320.12465,232.80375 c 158.84969,-6.33109 311.57518,31.17817 469.34797,39.49063 137.68705,3.60274 278.71958,-3.9301 411.79758,-21.68081 M -6.117025,269.42961 C 94.70217,254.34034 208.61539,243.33211 322.77083,238.59746 c 157.31181,-6.31018 308.67581,27.98856 464.92805,35.20736 138.22882,2.60458 279.76252,-4.36966 413.54512,-20.05685 M -6.3548002,270.7429 C 95.588911,258.64683 210.41709,249.19414 325.417,244.39116 c 155.77395,-6.28927 305.77646,24.79896 460.50814,30.9241 138.77059,1.60642 280.80546,-4.80922 415.29266,-18.43289 M -6.5925755,272.05618 C 96.475653,262.95332 212.21878,255.05616 328.06317,250.18487 c 154.23608,-6.26837 302.8771,21.60934 456.08823,26.64083 139.31236,0.60826 281.8484,-5.24878 417.0402,-16.80894 M -6.8303507,273.36947 C 97.362395,267.25982 214.02047,260.91819 330.70935,255.97857 c 152.69821,-6.24746 299.97774,18.41974 451.66831,22.35757 139.85413,-0.3899 282.89144,-5.68834 418.78784,-15.18498 M -7.068126,274.68276 c 105.317262,-3.11645 222.890286,-7.90254 340.423646,-12.91049 151.16034,-6.22654 297.07838,15.23014 447.2484,18.07432 140.3959,-1.38807 283.93438,-6.12791 420.53538,-13.56103 M -7.3059012,275.99604 C 99.135878,275.8728 217.62385,272.64224 336.00169,267.56598 c 149.62247,-6.20564 294.17903,12.04052 442.82849,13.79105 140.93767,-2.38624 284.97732,-6.56747 422.28292,-11.93708 M -7.5436765,277.30933 c 107.5662965,2.86997 226.9692165,1.19494 346.1915365,-3.94965 148.08461,-6.18473 291.27967,8.85092 438.40858,9.50779 141.47944,-3.3844 286.02026,-7.00703 424.03046,-10.31312 M -7.7814517,278.62262 c 108.6908117,5.86317 229.0086917,5.74368 349.0754917,0.53077 146.54673,-6.16383 288.38031,5.66131 433.98866,5.22452 142.02121,-4.38256 287.0632,-7.44659 425.7781,-8.68916 M -8.019227,279.9359 c 109.815327,8.85639 231.048157,10.29242 351.959437,5.01119 145.00887,-6.14291 285.48096,2.47171 429.56876,0.94126 142.56297,-5.38072 288.10613,-7.88615 427.52563,-7.06521 M -8.2570022,281.24919 C 102.68284,293.09878 224.83062,296.09035 346.58638,290.7408 c 143.471,-6.12201 282.5816,-0.71791 425.14885,-3.34201 143.10474,-6.37888 289.14907,-8.32572 429.27317,-5.44125 M -8.4947775,282.56248 C 103.56959,297.40527 226.63231,301.95238 349.23255,296.5345 c 141.93314,-6.1011 279.68225,-3.90751 420.72894,-7.62527 143.64651,-7.37704 290.19211,-8.76528 431.02071,-3.81729 M -8.7325527,283.87576 C 104.45633,301.71177 228.434,307.8144 351.87873,302.32821 c 140.39526,-6.0802 276.78288,-7.09712 416.30902,-11.90854 144.18828,-8.3752 291.23505,-9.20484 432.76835,-2.19334 M -8.970328,285.18905 c 114.313398,20.82921 239.206018,28.48738 363.495228,22.93286 138.85739,-6.05928 273.88353,-10.28673 411.88911,-16.1918 144.73005,-9.37337 292.27799,-9.6444 434.51589,-0.56938 M -9.2081032,286.50233 C 106.22981,310.32475 232.03738,319.53846 357.17107,313.91562 c 137.31953,-6.03838 270.98417,-13.47634 407.4692,-20.47507 145.27182,-10.37153 293.32093,-10.08396 436.26343,1.05457 M -9.4458785,287.81562 C 107.11655,314.63125 233.83908,325.40048 359.81724,319.70932 495.5989,313.69185 627.90206,303.04338 762.86653,294.95099 908.68012,283.5813 1057.2304,284.42747 1200.8775,297.62952 M -9.6836537,289.12891 c 117.6869437,29.80883 245.3244237,42.1336 372.1470737,36.37412 134.24379,-5.99657 265.18545,-19.85555 398.62937,-29.04159 146.35536,-12.36786 295.40681,-10.96309 439.75861,4.30248 M -9.921429,290.44219 c 118.811469,32.80205 247.363889,46.68235 375.031019,40.85454 132.70592,-5.97565 262.2861,-23.04516 394.20947,-33.32485 146.89712,-13.36602 296.44974,-11.40265 441.50614,5.92643 M -10.159204,291.75548 C 109.77678,327.55073 239.24415,342.98656 367.75576,337.09044 498.92381,331.13569 627.1425,310.85567 757.54532,299.48232 904.98421,285.11814 1055.038,287.64011 1200.799,307.03271 M -10.396979,293.06877 c 121.060499,38.78845 251.442819,55.77982 380.798909,49.81537 129.63019,-5.93384 256.48739,-29.42437 385.36965,-41.89138 147.98066,-15.36235 298.53572,-12.28177 445.00122,9.17435 M -10.634755,294.38205 c 122.185015,41.78167 253.482285,60.32857 383.682865,54.2958 128.09231,-5.91294 253.58803,-32.61399 380.94973,-46.17465 148.52243,-16.36051 299.57866,-12.72134 446.74886,10.7983 M -10.87253,295.69534 c 123.30953,44.77487 255.52175,64.8773 386.56681,58.77621 126.55445,-5.89202 250.68867,-35.80359 376.52982,-50.45791 149.0642,-17.35867 300.6216,-13.1609 448.4964,12.42226"
       class="UnoptimicedTransforms"
       transform="matrix(-1.0027795,0,0,-0.99999886,1201.077,271.64617)"
       sodipodi:nodetypes="cssccssc" />
  </g>
</svg>
