<?xml version="1.0" encoding="UTF-8" standalone="no"?>
<!-- Created with Inkscape (http://www.inkscape.org/) -->

<svg
   width="256"
   height="256"
   viewBox="0 0 67.73333 67.733335"
   version="1.1"
   id="svg1"
   xml:space="preserve"
   inkscape:version="1.3 (0e150ed6c4, 2023-07-21)"
   sodipodi:docname="icon.svg"
   inkscape:export-filename="icon.png"
   inkscape:export-xdpi="96"
   inkscape:export-ydpi="96"
   xmlns:inkscape="http://www.inkscape.org/namespaces/inkscape"
   xmlns:sodipodi="http://sodipodi.sourceforge.net/DTD/sodipodi-0.dtd"
   xmlns:xlink="http://www.w3.org/1999/xlink"
   xmlns="http://www.w3.org/2000/svg"
   xmlns:svg="http://www.w3.org/2000/svg"><sodipodi:namedview
     id="namedview1"
     pagecolor="#ffffff"
     bordercolor="#666666"
     borderopacity="1.0"
     inkscape:showpageshadow="2"
     inkscape:pageopacity="0.0"
     inkscape:pagecheckerboard="0"
     inkscape:deskcolor="#d1d1d1"
     inkscape:document-units="mm"
     inkscape:zoom="0.96343156"
     inkscape:cx="119.88397"
     inkscape:cy="98.086884"
     inkscape:window-width="1128"
     inkscape:window-height="683"
     inkscape:window-x="0"
     inkscape:window-y="0"
     inkscape:window-maximized="1"
     inkscape:current-layer="g61"
     showguides="true" /><defs
     id="defs1"><linearGradient
       id="linearGradient72"
       inkscape:collect="always"><stop
         style="stop-color:#6565e5;stop-opacity:1;"
         offset="0"
         id="stop72" /><stop
         style="stop-color:#66b1b1;stop-opacity:1;"
         offset="1"
         id="stop73" /></linearGradient><linearGradient
       id="linearGradient71"
       inkscape:collect="always"><stop
         style="stop-color:#6565e5;stop-opacity:1;"
         offset="0"
         id="stop71" /><stop
         style="stop-color:#66b1b1;stop-opacity:1;"
         offset="1"
         id="stop70" /></linearGradient><inkscape:perspective
       sodipodi:type="inkscape:persp3d"
       inkscape:vp_x="33.785085 : 60.28083 : 1"
       inkscape:vp_y="999.99993 : 0 : 0"
       inkscape:vp_z="30.671953 : -7.4353032 : 1"
       inkscape:persp3d-origin="19.383065 : 26.431365 : 1"
       id="perspective46" /><inkscape:path-effect
       effect="interpolate"
       id="path-effect1739"
       is_visible="true"
       lpeversion="1"
       trajectory="m 599.43798,150.57588 2.15444,236.66953"
       equidistant_spacing="true"
       steps="30" /><inkscape:path-effect
       effect="spiro"
       id="path-effect1079"
       is_visible="true"
       lpeversion="1" /><inkscape:path-effect
       effect="spiro"
       id="path-effect1075"
       is_visible="true"
       lpeversion="1" /><clipPath
       clipPathUnits="userSpaceOnUse"
       id="clipPath20"><path
         d="M 0,0 V 0 8000 H 12000 6409.44 3500 0 V 4716.71 h 3500 v -1080 h 8500 V 2210 H 9220 v 460 H 0 V 2194.45 1770 0"
         id="path18" /></clipPath><linearGradient
       x1="0"
       y1="0"
       x2="1"
       y2="0"
       gradientUnits="userSpaceOnUse"
       gradientTransform="matrix(10000,10000,10000,-10000,1000,-1000)"
       spreadMethod="pad"
       id="linearGradient28"><stop
         style="stop-opacity:1;stop-color:#dddddd"
         offset="0"
         id="stop22" /><stop
         style="stop-opacity:1;stop-color:#ffffff"
         offset="0.5"
         id="stop24" /><stop
         style="stop-opacity:1;stop-color:#dddddd"
         offset="1"
         id="stop26" /></linearGradient><clipPath
       clipPathUnits="userSpaceOnUse"
       id="clipPath38"><path
         d="M 4300,1770 H 305.887 C 177.852,1928.31 75.6758,2075.96 0,2194.45 V 2670 H 9220 V 2210 H 4300 v -440"
         id="path36" /></clipPath><clipPath
       clipPathUnits="userSpaceOnUse"
       id="clipPath50"><path
         d="M 305.887,1770 H 0 v 424.45 C 75.6758,2075.96 177.852,1928.31 305.887,1770"
         id="path48" /></clipPath><linearGradient
       x1="0"
       y1="0"
       x2="1"
       y2="0"
       gradientUnits="userSpaceOnUse"
       gradientTransform="matrix(9220.89,0,0,-9220.89,-160.446,1109.4)"
       spreadMethod="pad"
       id="linearGradient58"><stop
         style="stop-opacity:1;stop-color:#1143b5"
         offset="0"
         id="stop52" /><stop
         style="stop-opacity:1;stop-color:#1143b5"
         offset="0.00036143"
         id="stop54" /><stop
         style="stop-opacity:1;stop-color:#7dd5f9"
         offset="1"
         id="stop56" /></linearGradient><clipPath
       clipPathUnits="userSpaceOnUse"
       id="clipPath68"><path
         d="M 12000,3636.71 H 3500 v 1080 h 8074.4 c 194.6,-247.7 334.8,-456.48 425.6,-601.94 v -478.06"
         id="path66" /></clipPath><clipPath
       clipPathUnits="userSpaceOnUse"
       id="clipPath80"><path
         d="m 12000,4114.77 v 0 c -90.8,145.46 -231,354.24 -425.6,601.94 h 425.6 v -601.94"
         id="path78" /></clipPath><linearGradient
       x1="0"
       y1="0"
       x2="1"
       y2="0"
       gradientUnits="userSpaceOnUse"
       gradientTransform="matrix(-8471.39,0,0,-8471.39,12130,6135.71)"
       spreadMethod="pad"
       id="linearGradient88"><stop
         style="stop-opacity:1;stop-color:#1143b5"
         offset="0"
         id="stop82" /><stop
         style="stop-opacity:1;stop-color:#1143b5"
         offset="0.00036143"
         id="stop84" /><stop
         style="stop-opacity:1;stop-color:#7dd5f9"
         offset="1"
         id="stop86" /></linearGradient><clipPath
       clipPathUnits="userSpaceOnUse"
       id="clipPath98"><path
         d="M 0,4716.71 H 3500 V 8000 H 0 Z"
         id="path96" /></clipPath><clipPath
       clipPathUnits="userSpaceOnUse"
       id="clipPath110"><path
         d="M 11574.4,4716.71 H 3500 V 8000 H 6409.44 C 9195.04,7274.59 10807.8,5692.26 11574.4,4716.71"
         id="path108" /></clipPath><clipPath
       clipPathUnits="userSpaceOnUse"
       id="clipPath116"><path
         d="m 3495.2,6027.11 h 2112.19 v 1977.6 H 3495.2 Z"
         id="path114" /></clipPath><clipPath
       clipPathUnits="userSpaceOnUse"
       id="clipPath128"><path
         d="M 11574.4,4716.71 H 3500 V 8000 H 6409.44 C 9195.04,7274.59 10807.8,5692.26 11574.4,4716.71"
         id="path126" /></clipPath><clipPath
       clipPathUnits="userSpaceOnUse"
       id="clipPath134"><path
         d="m 5602.59,6027.11 h 2112.19 v 1977.6 H 5602.59 Z"
         id="path132" /></clipPath><clipPath
       clipPathUnits="userSpaceOnUse"
       id="clipPath146"><path
         d="M 11574.4,4716.71 H 3500 V 8000 H 6409.44 C 9195.04,7274.59 10807.8,5692.26 11574.4,4716.71"
         id="path144" /></clipPath><clipPath
       clipPathUnits="userSpaceOnUse"
       id="clipPath152"><path
         d="m 7709.98,4711.91 h 708.07 v 2964 h -708.07 z"
         id="path150" /></clipPath><clipPath
       clipPathUnits="userSpaceOnUse"
       id="clipPath164"><path
         d="M 11574.4,4716.71 H 3500 V 8000 H 6409.44 C 9195.04,7274.59 10807.8,5692.26 11574.4,4716.71"
         id="path162" /></clipPath><clipPath
       clipPathUnits="userSpaceOnUse"
       id="clipPath170"><path
         d="m 8413.25,4711.91 h 708.059 v 2635.2 H 8413.25 Z"
         id="path168" /></clipPath><clipPath
       clipPathUnits="userSpaceOnUse"
       id="clipPath182"><path
         d="M 11574.4,4716.71 H 3500 V 8000 H 6409.44 C 9195.04,7274.59 10807.8,5692.26 11574.4,4716.71"
         id="path180" /></clipPath><clipPath
       clipPathUnits="userSpaceOnUse"
       id="clipPath188"><path
         d="m 9116.51,4711.91 h 355.23 v 2306.4 h -355.23 z"
         id="path186" /></clipPath><clipPath
       clipPathUnits="userSpaceOnUse"
       id="clipPath200"><path
         d="M 11574.4,4716.71 H 3500 V 8000 H 6409.44 C 9195.04,7274.59 10807.8,5692.26 11574.4,4716.71"
         id="path198" /></clipPath><clipPath
       clipPathUnits="userSpaceOnUse"
       id="clipPath206"><path
         d="m 9466.94,4711.91 h 708.059 v 1977.6 H 9466.94 Z"
         id="path204" /></clipPath><clipPath
       clipPathUnits="userSpaceOnUse"
       id="clipPath218"><path
         d="M 11574.4,4716.71 H 3500 V 8000 H 6409.44 C 9195.04,7274.59 10807.8,5692.26 11574.4,4716.71"
         id="path216" /></clipPath><clipPath
       clipPathUnits="userSpaceOnUse"
       id="clipPath224"><path
         d="m 10170.2,4711.91 h 355.203 v 1648.8 H 10170.2 Z"
         id="path222" /></clipPath><clipPath
       clipPathUnits="userSpaceOnUse"
       id="clipPath236"><path
         d="M 11574.4,4716.71 H 3500 V 8000 H 6409.44 C 9195.04,7274.59 10807.8,5692.26 11574.4,4716.71"
         id="path234" /></clipPath><clipPath
       clipPathUnits="userSpaceOnUse"
       id="clipPath242"><path
         d="m 3495.2,4711.91 h 3516.32 v 1320 H 3495.2 Z"
         id="path240" /></clipPath><clipPath
       clipPathUnits="userSpaceOnUse"
       id="clipPath254"><path
         d="M 11574.4,4716.71 H 3500 V 8000 H 6409.44 C 9195.04,7274.59 10807.8,5692.26 11574.4,4716.71"
         id="path252" /></clipPath><clipPath
       clipPathUnits="userSpaceOnUse"
       id="clipPath260"><path
         d="m 7006.72,4711.91 h 708.063 v 1320 H 7006.72 Z"
         id="path258" /></clipPath><clipPath
       clipPathUnits="userSpaceOnUse"
       id="clipPath272"><path
         d="M 11574.4,4716.71 H 3500 V 8000 H 6409.44 C 9195.04,7274.59 10807.8,5692.26 11574.4,4716.71"
         id="path270" /></clipPath><clipPath
       clipPathUnits="userSpaceOnUse"
       id="clipPath278"><path
         d="m 10520.6,4711.91 h 355.297 v 1320 H 10520.6 Z"
         id="path276" /></clipPath><clipPath
       clipPathUnits="userSpaceOnUse"
       id="clipPath290"><path
         d="M 11574.4,4716.71 H 3500 V 8000 H 6409.44 C 9195.04,7274.59 10807.8,5692.26 11574.4,4716.71"
         id="path288" /></clipPath><clipPath
       clipPathUnits="userSpaceOnUse"
       id="clipPath296"><path
         d="m 10871.1,4711.91 h 357.598 v 991.199 H 10871.1 Z"
         id="path294" /></clipPath><clipPath
       clipPathUnits="userSpaceOnUse"
       id="clipPath308"><path
         d="M 11574.4,4716.71 H 3500 V 8000 H 6409.44 C 9195.04,7274.59 10807.8,5692.26 11574.4,4716.71"
         id="path306" /></clipPath><clipPath
       clipPathUnits="userSpaceOnUse"
       id="clipPath314"><path
         d="m 11223.9,4711.91 h 355.199 v 662.398 H 11223.9 Z"
         id="path312" /></clipPath><clipPath
       clipPathUnits="userSpaceOnUse"
       id="clipPath326"><path
         d="m 12000,4716.71 h -425.6 C 10807.8,5692.26 9195.04,7274.59 6409.44,8000 H 12000 V 4716.71"
         id="path324" /></clipPath><clipPath
       clipPathUnits="userSpaceOnUse"
       id="clipPath338"><path
         d="M 0,0 H 12000 V 8000 H 0 Z"
         id="path336" /></clipPath><clipPath
       clipPathUnits="userSpaceOnUse"
       id="clipPath344"><path
         d="M -211.875,8479.55 H 12110.2 V 4975.7 c 0,0 -1924.5,4225.77 -12328.212,2380.72 z"
         id="path342" /></clipPath><linearGradient
       x1="0"
       y1="0"
       x2="1"
       y2="0"
       gradientUnits="userSpaceOnUse"
       gradientTransform="matrix(12328.2,0,0,-12328.2,-218.012,6727.62)"
       spreadMethod="pad"
       id="linearGradient352"><stop
         style="stop-opacity:1;stop-color:#1141b0"
         offset="0"
         id="stop346" /><stop
         style="stop-opacity:1;stop-color:#1141b0"
         offset="0.434122"
         id="stop348" /><stop
         style="stop-opacity:1;stop-color:#2db4f9"
         offset="1"
         id="stop350" /></linearGradient><clipPath
       clipPathUnits="userSpaceOnUse"
       id="clipPath362"><path
         d="M 2631.7,506.719 C 1546.4,506.719 761.949,1206.11 305.887,1770 H 4300 V 1001.06 C 4214,962.879 4127.6,921.641 4040.45,877 3525.96,613.52 3055.88,506.719 2631.7,506.719"
         id="path360" /></clipPath><clipPath
       clipPathUnits="userSpaceOnUse"
       id="clipPath368"><path
         d="m 301.602,1135.79 h 4003.2 v 638.66 h -4003.2 z"
         id="path366" /></clipPath><clipPath
       clipPathUnits="userSpaceOnUse"
       id="clipPath380"><path
         d="M 2631.7,506.719 C 1546.4,506.719 761.949,1206.11 305.887,1770 H 4300 V 1001.06 C 4214,962.879 4127.6,921.641 4040.45,877 3525.96,613.52 3055.88,506.719 2631.7,506.719"
         id="path378" /></clipPath><clipPath
       clipPathUnits="userSpaceOnUse"
       id="clipPath386"><path
         d="m 635.199,818.871 h 3669.6 v 321.719 h -3669.6 z"
         id="path384" /></clipPath><clipPath
       clipPathUnits="userSpaceOnUse"
       id="clipPath398"><path
         d="M 2631.7,506.719 C 1546.4,506.719 761.949,1206.11 305.887,1770 H 4300 V 1001.06 C 4214,962.879 4127.6,921.641 4040.45,877 3525.96,613.52 3055.88,506.719 2631.7,506.719"
         id="path396" /></clipPath><clipPath
       clipPathUnits="userSpaceOnUse"
       id="clipPath404"><path
         d="m 1300,501.941 h 2671.2 v 321.73 H 1300 Z"
         id="path402" /></clipPath><clipPath
       clipPathUnits="userSpaceOnUse"
       id="clipPath416"><path
         d="M 4300,0 H 0 V 1770 H 305.887 C 761.949,1206.11 1546.4,506.719 2631.7,506.719 c 424.18,0 894.26,106.801 1408.75,370.281 87.15,44.641 173.55,85.879 259.55,124.06 V 0"
         id="path414" /></clipPath><clipPath
       clipPathUnits="userSpaceOnUse"
       id="clipPath428"><path
         d="M 0,0 H 12000 V 8000 H 0 Z"
         id="path426" /></clipPath><clipPath
       clipPathUnits="userSpaceOnUse"
       id="clipPath434"><path
         d="m -218.012,-250.32 5.016,1819.54 c 0,0 940.723,-1866.349 6001.466,-1819.54 z"
         id="path432" /></clipPath><linearGradient
       x1="0"
       y1="0"
       x2="1"
       y2="0"
       gradientUnits="userSpaceOnUse"
       gradientTransform="matrix(6006.48,0,0,-6006.48,-218.012,659.01)"
       spreadMethod="pad"
       id="linearGradient444"><stop
         style="stop-opacity:1;stop-color:#1141b0"
         offset="0"
         id="stop436" /><stop
         style="stop-opacity:1;stop-color:#1141b0"
         offset="0.434122"
         id="stop438" /><stop
         style="stop-opacity:1;stop-color:#2dd5f9"
         offset="0.999986"
         id="stop440" /><stop
         style="stop-opacity:1;stop-color:#2dd5f9"
         offset="1"
         id="stop442" /></linearGradient><clipPath
       clipPathUnits="userSpaceOnUse"
       id="clipPath454"><path
         d="m 9220,0 h 2780 V 2210 H 9220 Z"
         id="path452" /></clipPath><clipPath
       clipPathUnits="userSpaceOnUse"
       id="clipPath466"><path
         d="m 9220,0 h -263.07 c -337.71,560.172 -1434.55,1387.8 -2907.02,1387.8 -36.41,0 -73.05,-0.51 -109.91,-1.54 V 1770 H 4300 v 440 H 9220 V 0"
         id="path464" /></clipPath><clipPath
       clipPathUnits="userSpaceOnUse"
       id="clipPath472"><path
         d="m 4295.2,1577.57 h 4929.6 v 636.25 H 4295.2 Z"
         id="path470" /></clipPath><clipPath
       clipPathUnits="userSpaceOnUse"
       id="clipPath484"><path
         d="m 9220,0 h -263.07 c -337.71,560.172 -1434.55,1387.8 -2907.02,1387.8 -36.41,0 -73.05,-0.51 -109.91,-1.54 V 1770 H 4300 v 440 H 9220 V 0"
         id="path482" /></clipPath><clipPath
       clipPathUnits="userSpaceOnUse"
       id="clipPath490"><path
         d="m 5701.6,1260.64 h 3523.2 v 321.73 H 5701.6 Z"
         id="path488" /></clipPath><clipPath
       clipPathUnits="userSpaceOnUse"
       id="clipPath502"><path
         d="m 9220,0 h -263.07 c -337.71,560.172 -1434.55,1387.8 -2907.02,1387.8 -36.41,0 -73.05,-0.51 -109.91,-1.54 V 1770 H 4300 v 440 H 9220 V 0"
         id="path500" /></clipPath><clipPath
       clipPathUnits="userSpaceOnUse"
       id="clipPath508"><path
         d="m 6757.6,943.719 h 2467.2 v 321.723 H 6757.6 Z"
         id="path506" /></clipPath><clipPath
       clipPathUnits="userSpaceOnUse"
       id="clipPath520"><path
         d="m 9220,0 h -263.07 c -337.71,560.172 -1434.55,1387.8 -2907.02,1387.8 -36.41,0 -73.05,-0.51 -109.91,-1.54 V 1770 H 4300 v 440 H 9220 V 0"
         id="path518" /></clipPath><clipPath
       clipPathUnits="userSpaceOnUse"
       id="clipPath526"><path
         d="m 7813.6,626.789 h 1411.2 v 321.73 H 7813.6 Z"
         id="path524" /></clipPath><clipPath
       clipPathUnits="userSpaceOnUse"
       id="clipPath538"><path
         d="m 9220,0 h -263.07 c -337.71,560.172 -1434.55,1387.8 -2907.02,1387.8 -36.41,0 -73.05,-0.51 -109.91,-1.54 V 1770 H 4300 v 440 H 9220 V 0"
         id="path536" /></clipPath><clipPath
       clipPathUnits="userSpaceOnUse"
       id="clipPath544"><path
         d="M 8164,312.27 H 9224.8 V 631.59 H 8164 Z"
         id="path542" /></clipPath><clipPath
       clipPathUnits="userSpaceOnUse"
       id="clipPath556"><path
         d="m 9220,0 h -263.07 c -337.71,560.172 -1434.55,1387.8 -2907.02,1387.8 -36.41,0 -73.05,-0.51 -109.91,-1.54 V 1770 H 4300 v 440 H 9220 V 0"
         id="path554" /></clipPath><clipPath
       clipPathUnits="userSpaceOnUse"
       id="clipPath562"><path
         d="m 8516.8,-4.66016 h 708 v 321.73 h -708 z"
         id="path560" /></clipPath><clipPath
       clipPathUnits="userSpaceOnUse"
       id="clipPath574"><path
         d="M 8956.93,0 H 5940 v 1386.26 c 36.86,1.03 73.5,1.54 109.91,1.54 1472.47,0 2569.31,-827.628 2907.02,-1387.8 v 0"
         id="path572" /></clipPath><clipPath
       clipPathUnits="userSpaceOnUse"
       id="clipPath586"><path
         d="M 4300,1001.06 V 1770 h 1640 v -383.74 c -508.98,-14.21 -1060.94,-128.15 -1640,-385.2"
         id="path584" /></clipPath><clipPath
       clipPathUnits="userSpaceOnUse"
       id="clipPath598"><path
         d="M 5940,0 H 4300 v 1001.06 c 579.06,257.05 1131.02,370.99 1640,385.2 V 0"
         id="path596" /></clipPath><clipPath
       clipPathUnits="userSpaceOnUse"
       id="clipPath610"><path
         d="M 0,0 H 12000 V 8000 H 0 Z"
         id="path608" /></clipPath><clipPath
       clipPathUnits="userSpaceOnUse"
       id="clipPath616"><path
         d="m 12210,2005.2 c 0,0 -630.9,-1372.2 -3138.7,-1293.329 C 6563.5,790.719 4450,-251.191 4450,-251.191 h 7760 z"
         id="path614" /></clipPath><linearGradient
       x1="0"
       y1="0"
       x2="1"
       y2="0"
       gradientUnits="userSpaceOnUse"
       gradientTransform="matrix(7760,0,0,-7760,4450,877)"
       spreadMethod="pad"
       id="linearGradient626"><stop
         style="stop-opacity:1;stop-color:#1141b0"
         offset="0"
         id="stop618" /><stop
         style="stop-opacity:1;stop-color:#1141b0"
         offset="0.434122"
         id="stop620" /><stop
         style="stop-opacity:1;stop-color:#2dd5f9"
         offset="0.999986"
         id="stop622" /><stop
         style="stop-opacity:1;stop-color:#2dd5f9"
         offset="1"
         id="stop624" /></linearGradient><inkscape:path-effect
       effect="spiro"
       id="path-effect1075-3"
       is_visible="true"
       lpeversion="1" /><inkscape:path-effect
       effect="spiro"
       id="path-effect1075-3-7"
       is_visible="true"
       lpeversion="1" /><inkscape:path-effect
       effect="interpolate"
       id="path-effect1739-5"
       is_visible="true"
       lpeversion="1"
       trajectory="m 599.43798,150.57588 2.15444,236.66953"
       equidistant_spacing="true"
       steps="35" /><clipPath
       clipPathUnits="userSpaceOnUse"
       id="clipPath29"><g
         id="g30"
         style="stroke-width:0.0395097"
         transform="matrix(32.072068,0,0,-19.974014,-270.2425,840.96594)"><rect
           style="opacity:0.99;fill:#2d1212;fill-opacity:0.374966;stroke:#6565e5;stroke-width:0.00522682;stroke-linecap:butt;stroke-miterlimit:0;stroke-dasharray:none;stroke-opacity:1;paint-order:stroke markers fill"
           id="rect29"
           width="37.830883"
           height="24.153502"
           x="8.1756115"
           y="17.985641" /></g></clipPath><clipPath
       clipPathUnits="userSpaceOnUse"
       id="clipPath30"><g
         id="g31"
         style="stroke-width:0.0466633"
         transform="matrix(32.072068,0,0,-14.319256,-264.80628,1068.082)"><rect
           style="opacity:0.99;fill:#2d1212;fill-opacity:0.374966;stroke:#6565e5;stroke-width:0.0061732;stroke-linecap:butt;stroke-miterlimit:0;stroke-dasharray:none;stroke-opacity:1;paint-order:stroke markers fill"
           id="rect30"
           width="37.830883"
           height="24.153502"
           x="8.1756115"
           y="17.985641" /></g></clipPath><clipPath
       clipPathUnits="userSpaceOnUse"
       id="clipPath31"><g
         id="g32"
         style="stroke-width:0.999999"><rect
           style="opacity:0.99;fill:#2d1212;fill-opacity:0.374966;stroke:#6565e5;stroke-width:0.132292;stroke-linecap:butt;stroke-miterlimit:0;stroke-dasharray:none;stroke-opacity:1;paint-order:stroke markers fill"
           id="rect31"
           width="37.830883"
           height="24.153502"
           x="8.1756115"
           y="17.985641" /></g></clipPath><inkscape:perspective
       sodipodi:type="inkscape:persp3d"
       inkscape:vp_x="42.011885 : 31.578007 : 1"
       inkscape:vp_y="264.58331 : 0 : 0"
       inkscape:vp_z="41.188203 : 13.661447 : 1"
       inkscape:persp3d-origin="38.201351 : 22.622003 : 1"
       id="perspective46-6" /><inkscape:perspective
       sodipodi:type="inkscape:persp3d"
       inkscape:vp_x="33.807013 : 62.626081 : 1"
       inkscape:vp_y="264.58331 : 0 : 0"
       inkscape:vp_z="32.98333 : 44.70952 : 1"
       inkscape:persp3d-origin="29.996478 : 53.670076 : 1"
       id="perspective46-9" /><inkscape:perspective
       sodipodi:type="inkscape:persp3d"
       inkscape:vp_x="34.338969 : 69.413425 : 1"
       inkscape:vp_y="264.58331 : 0 : 0"
       inkscape:vp_z="33.515286 : 51.496865 : 1"
       inkscape:persp3d-origin="30.528435 : 60.457421 : 1"
       id="perspective46-3" /><inkscape:perspective
       sodipodi:type="inkscape:persp3d"
       inkscape:vp_x="33.807013 : 66.404017 : 1"
       inkscape:vp_y="264.58331 : 0 : 0"
       inkscape:vp_z="32.98333 : 48.487457 : 1"
       inkscape:persp3d-origin="29.996478 : 57.448013 : 1"
       id="perspective46-1" /><inkscape:perspective
       sodipodi:type="inkscape:persp3d"
       inkscape:vp_x="33.807012 : 65.184004 : 1"
       inkscape:vp_y="264.58331 : 0 : 0"
       inkscape:vp_z="32.98333 : 47.267444 : 1"
       inkscape:persp3d-origin="29.996478 : 56.228 : 1"
       id="perspective46-7" /><inkscape:perspective
       sodipodi:type="inkscape:persp3d"
       inkscape:vp_x="33.807013 : 63.963991 : 1"
       inkscape:vp_y="264.58331 : 0 : 0"
       inkscape:vp_z="32.98333 : 46.047431 : 1"
       inkscape:persp3d-origin="29.996478 : 55.007987 : 1"
       id="perspective46-74" /><linearGradient
       inkscape:collect="always"
       xlink:href="#linearGradient71"
       id="linearGradient67"
       x1="27.295736"
       y1="19.172367"
       x2="40.361393"
       y2="19.172367"
       gradientUnits="userSpaceOnUse" /><linearGradient
       inkscape:collect="always"
       xlink:href="#linearGradient72"
       id="linearGradient73"
       x1="27.295736"
       y1="19.172368"
       x2="40.361392"
       y2="19.172368"
       gradientUnits="userSpaceOnUse" /><linearGradient
       inkscape:collect="always"
       xlink:href="#linearGradient72"
       id="linearGradient74"
       gradientUnits="userSpaceOnUse"
       x1="33.828564"
       y1="22.650148"
       x2="33.828564"
       y2="15.694588" /><linearGradient
       inkscape:collect="always"
       xlink:href="#linearGradient72"
       id="linearGradient75"
       gradientUnits="userSpaceOnUse"
       x1="33.828564"
       y1="22.650148"
       x2="33.828564"
       y2="15.694588" /><linearGradient
       inkscape:collect="always"
       xlink:href="#linearGradient72"
       id="linearGradient76"
       gradientUnits="userSpaceOnUse"
       x1="33.828564"
       y1="22.650148"
       x2="33.828564"
       y2="15.694588" /></defs><g
     inkscape:label="Layer 1"
     inkscape:groupmode="layer"
     id="layer1"><g
       id="g60"
       transform="translate(0.08158027,14.596206)"><g
         id="g61"
         style="fill:url(#linearGradient67)"
         transform="translate(6.5809732)"><g
           id="g72"
           style="fill:url(#linearGradient73);stroke-width:0.529167;stroke-dasharray:none"
           transform="matrix(4.300783,0,0,4.300783,-118.2852,-63.185736)"
           inkscape:export-filename="icon.png"
           inkscape:export-xdpi="96"
           inkscape:export-ydpi="96"><path
             id="rect60"
             style="opacity:0.99;fill:url(#linearGradient74);fill-opacity:1;stroke:#fcfcff;stroke-width:0.529167;stroke-miterlimit:0;stroke-dasharray:none;paint-order:stroke markers fill"
             d="m 30.687173,18.134614 h 6.282782 l 3.175,4.515535 H 27.512173 Z"
             sodipodi:nodetypes="ccccc" /><path
             id="rect60-9"
             style="opacity:0.99;fill:url(#linearGradient75);fill-opacity:1;stroke:#fcfcff;stroke-width:0.529167;stroke-miterlimit:0;stroke-dasharray:none;paint-order:stroke markers fill"
             d="m 30.687173,16.914601 h 6.282782 l 3.175,4.515535 H 27.512173 Z"
             sodipodi:nodetypes="ccccc" /><path
             id="rect60-9-8"
             style="opacity:0.99;fill:url(#linearGradient76);fill-opacity:1;stroke:#fcfcff;stroke-width:0.529167;stroke-miterlimit:0;stroke-dasharray:none;paint-order:stroke markers fill"
             d="m 30.687173,15.694588 h 6.282782 l 3.175,4.515535 H 27.512173 Z"
             sodipodi:nodetypes="ccccc" /></g></g></g></g></svg>
